<?xml version="1.0" encoding="UTF-8"?>
<svg width="200px" height="200px" viewBox="0 0 200 200" version="1.1" xmlns="http://www.w3.org/2000/svg" xmlns:xlink="http://www.w3.org/1999/xlink">
    <!-- Generator: Sketch 52.6 (67491) - http://www.bohemiancoding.com/sketch -->
    <title>arrow</title>
    <desc>Created with Sketch.</desc>
    <g id="arrow" stroke="none" stroke-width="1" fill="none" fill-rule="evenodd">
        <g id="upload" transform="translate(100.500000, 90.000000) rotate(-270.000000) translate(-100.500000, -90.000000) translate(75.500000, 8.500000)" fill="#000000">
            <path d="M4.57460214,49.1774587 C5.61743957,49.1774587 6.66027701,48.7805463 7.45462584,47.9907716 L41.3183275,14.3220694 L41.3183275,158.449873 C41.3183275,160.689593 43.1392194,162.5 45.3919112,162.5 C47.644603,162.5 49.465495,160.689593 49.465495,158.449873 L49.465495,14.3220694 C49.5602368,7.14922972 49.4598764,3.20535839 49.164414,2.49045545 C48.7212204,1.41810105 47.5675526,1.01335354 47.0624282,0.806797087 C46.0684737,0.397734304 44.8297567,0.397734304 43.8317286,0.806797087 C43.3306778,1.01335354 42.8785101,1.31306291 42.5037403,1.68567455 L1.69457843,42.2638926 C0.101807189,43.8474921 0.101807189,46.4071721 1.69457843,47.9907716 C2.48892726,48.7845964 3.5317647,49.1774587 4.57460214,49.1774587 Z" id="Path"></path>
        </g>
    </g>
</svg>